# xmcd
#
# Track frame offsets: 
#        150
#        23160
#        43352
#        62300
#        74880
#        103077
#        122615
#        142142
#        156315
#        178470
#        203240
#        225065
#        250180
#        271420
#
# Disc length: 3793 seconds
#
# Revision: 4
# Processed by: cddbd v1.5.2PL0 Copyright (c) Steve Scherf et al.
# Submitted via: ExactAudioCopy v1.1
#
DISCID=d20ecf0e
DTITLE=Jimmy Burns - Night Time Again
DYEAR=1999
DGENRE=Blues
TTITLE0=No Consideration
TTITLE1=You Say You Need Lovin'
TTITLE2=Spend Some Time With Me
TTITLE3=Baby Don`t Do It
TTITLE4=Shake For Me
TTITLE5=Wait A Minute
TTITLE6=Hard Road
TTITLE7=Too Much Loving
TTITLE8=Don`t Be Late
TTITLE9=Hard Woman To Please
TTITLE10=Monkey Time
TTITLE11=Here It Is Night Time Again
TTITLE12=Why You Wanna Start A Fight?
TTITLE13=1959 Revisited: A Tribute
EXTD=
EXTT0=
EXTT1=
EXTT2=
EXTT3=
EXTT4=
EXTT5=
EXTT6=
EXTT7=
EXTT8=
EXTT9=
EXTT10=
EXTT11=
EXTT12=
EXTT13=
PLAYORDER=
